<svg width="136" height="136" viewBox="0 0 136 136" fill="none" xmlns="http://www.w3.org/2000/svg">
<circle cx="68" cy="68" r="68" fill="#F3F5FA"/>
<path d="M84.2363 39.764C78.9043 38.5888 73.4603 37.9974 68.0003 38C52.1846 37.9738 36.7694 42.9722 23.9783 52.274C23.6414 52.5258 23.363 52.8476 23.1625 53.2173C22.9619 53.5871 22.8438 53.9959 22.8165 54.4156C22.7891 54.8353 22.853 55.256 23.0039 55.6486C23.1548 56.0413 23.3889 56.3966 23.6903 56.69C24.2147 57.2065 24.9053 57.5201 25.6393 57.575C26.3733 57.63 27.1029 57.4226 27.6983 56.99C39.4292 48.5239 53.5336 43.9778 68.0003 44C71.7803 44 75.4943 44.3 79.1123 44.888L84.2363 39.764ZM68.0003 56C56.5703 56 45.9203 59.36 37.0043 65.156C36.6476 65.3967 36.3494 65.7143 36.1316 66.0854C35.9138 66.4565 35.7819 66.8717 35.7456 67.3005C35.7094 67.7293 35.7697 68.1608 35.9221 68.5632C36.0745 68.9656 36.3151 69.3288 36.6263 69.626C37.1375 70.1249 37.8032 70.4353 38.514 70.5062C39.2248 70.577 39.9386 70.4042 40.5383 70.016C46.9023 65.9375 54.098 63.3339 61.5983 62.396L68.0003 56ZM83.5763 64.424L88.2863 59.714C92.0663 61.154 95.6543 62.984 98.9963 65.156C99.3512 65.3981 99.6476 65.7163 99.8641 66.0874C100.081 66.4584 100.212 66.873 100.248 67.3011C100.284 67.7292 100.225 68.16 100.073 68.5621C99.9223 68.9643 99.6835 69.3277 99.3743 69.626C98.8631 70.1249 98.1975 70.4353 97.4866 70.5062C96.7758 70.577 96.062 70.4042 95.4623 70.016C91.761 67.6456 87.7677 65.7659 83.5823 64.424H83.5763ZM68.0003 80L73.6043 74.402C77.8108 75.005 81.8893 76.2962 85.6763 78.224C87.3863 79.094 87.6323 81.368 86.2763 82.724L86.1863 82.814C85.7074 83.2742 85.0968 83.5736 84.4397 83.6704C83.7826 83.7672 83.1116 83.6566 82.5203 83.354C78.0009 81.139 73.0333 79.9915 68.0003 80ZM97.4303 50.57L101.912 46.088C105.452 47.888 108.83 49.958 112.022 52.268C112.36 52.5197 112.639 52.8419 112.841 53.2121C113.042 53.5824 113.16 53.992 113.188 54.4125C113.215 54.833 113.151 55.2544 112.999 55.6476C112.848 56.0409 112.613 56.3965 112.31 56.69C111.786 57.2065 111.095 57.5201 110.361 57.575C109.627 57.63 108.898 57.4226 108.302 56.99C104.882 54.5221 101.243 52.3731 97.4303 50.57ZM74.1203 90.68C75.5483 91.52 75.5363 93.464 74.3603 94.64L70.1243 98.876C69.8456 99.1554 69.5146 99.377 69.1501 99.5283C68.7856 99.6795 68.3949 99.7573 68.0003 99.7573C67.6057 99.7573 67.215 99.6795 66.8505 99.5283C66.486 99.377 66.155 99.1554 65.8763 98.876L61.6343 94.634C60.4643 93.464 60.4523 91.526 61.8743 90.674C63.7278 89.5732 65.8446 88.9948 68.0003 89C70.2383 89 72.3323 89.612 74.1203 90.68ZM100.25 31.25C100.847 30.6532 101.656 30.318 102.5 30.318C103.344 30.318 104.154 30.6532 104.75 31.25C105.347 31.8467 105.682 32.6561 105.682 33.5C105.682 34.3439 105.347 35.1532 104.75 35.75L40.2503 100.25C39.9548 100.545 39.6041 100.78 39.218 100.94C38.8319 101.1 38.4182 101.182 38.0003 101.182C37.5824 101.182 37.1687 101.1 36.7826 100.94C36.3966 100.78 36.0458 100.545 35.7503 100.25C35.4548 99.9545 35.2205 99.6037 35.0605 99.2177C34.9006 98.8316 34.8183 98.4179 34.8183 98C34.8183 97.5821 34.9006 97.1684 35.0605 96.7823C35.2205 96.3962 35.4548 96.0455 35.7503 95.75L100.25 31.25Z" fill="#B2B5C4"/>
</svg>
