<svg width="104" height="104" viewBox="0 0 104 104" fill="none" xmlns="http://www.w3.org/2000/svg">
<circle cx="52" cy="52" r="52" fill="#F3F5FA"/>
<path d="M83.6799 63.9L60.6699 25.74C59.7395 24.2844 58.4576 23.0866 56.9424 22.2568C55.4272 21.4271 53.7275 20.9921 51.9999 20.9921C50.2724 20.9921 48.5727 21.4271 47.0575 22.2568C45.5423 23.0866 44.2604 24.2844 43.3299 25.74L20.3199 63.9C19.5071 65.255 19.0653 66.8 19.039 68.3799C19.0126 69.9598 19.4027 71.5187 20.1699 72.9C21.057 74.4548 22.3409 75.7462 23.8905 76.6422C25.4402 77.5383 27.1999 78.0068 28.9899 78H75.0099C76.7882 78.019 78.54 77.5685 80.0886 76.6942C81.6371 75.8198 82.9277 74.5525 83.8299 73.02C84.6197 71.6243 85.0222 70.043 84.9958 68.4396C84.9695 66.8362 84.5152 65.2689 83.6799 63.9ZM78.5799 70.05C78.2194 70.6698 77.6961 71.1791 77.0669 71.5228C76.4376 71.8665 75.7263 72.0316 75.0099 72H28.9899C28.2736 72.0316 27.5623 71.8665 26.933 71.5228C26.3037 71.1791 25.7805 70.6698 25.4199 70.05C25.1566 69.5939 25.018 69.0766 25.018 68.55C25.018 68.0234 25.1566 67.5061 25.4199 67.05L48.4599 28.86C48.8739 28.3131 49.409 27.8696 50.0232 27.5642C50.6374 27.2588 51.314 27.0999 51.9999 27.0999C52.6859 27.0999 53.3624 27.2588 53.9766 27.5642C54.5908 27.8696 55.1259 28.3131 55.5399 28.86L78.5499 67.02C78.8234 67.4769 78.9703 67.9984 78.9756 68.5309C78.9809 69.0634 78.8443 69.5877 78.5799 70.05Z" fill="#B2B5C4"/>
<path d="M52 66C53.6569 66 55 64.6569 55 63C55 61.3431 53.6569 60 52 60C50.3431 60 49 61.3431 49 63C49 64.6569 50.3431 66 52 66Z" fill="#B2B5C4"/>
<path d="M52 39C51.2044 39 50.4413 39.3161 49.8787 39.8787C49.3161 40.4413 49 41.2044 49 42V54C49 54.7956 49.3161 55.5587 49.8787 56.1213C50.4413 56.6839 51.2044 57 52 57C52.7956 57 53.5587 56.6839 54.1213 56.1213C54.6839 55.5587 55 54.7956 55 54V42C55 41.2044 54.6839 40.4413 54.1213 39.8787C53.5587 39.3161 52.7956 39 52 39Z" fill="#B2B5C4"/>
</svg>
