<svg width="60" height="28" viewBox="0 0 60 28" fill="none" xmlns="http://www.w3.org/2000/svg">
<path d="M0 22.2026V3.30682C0 3.2567 0.0247723 3.20657 0.0743167 3.20657L4.11219 1.95354C4.18651 1.92848 4.26083 1.9786 4.26083 2.05378V15.3359V22.2276C4.26083 22.3028 4.21128 22.3529 4.13697 22.3529H0.123861C0.0495445 22.3279 0 22.2778 0 22.2026Z" fill="#242931"/>
<path d="M28.3895 0C29.9006 0 31.0649 1.20291 31.0649 2.68149C31.0649 4.16007 29.8758 5.33793 28.3895 5.33793C26.9527 5.33793 25.7636 4.13501 25.7636 2.68149C25.7388 1.20291 26.9527 0 28.3895 0Z" fill="#FF7E61"/>
<path d="M30.2484 7.39331H26.3839C26.2601 7.39331 26.161 7.49355 26.161 7.61886V22.1541C26.161 22.2794 26.2601 22.3796 26.3839 22.3796H30.2484C30.3723 22.3796 30.4713 22.2794 30.4713 22.1541V7.61886C30.4713 7.49355 30.3723 7.39331 30.2484 7.39331Z" fill="#242931"/>
<path d="M8.24868 7.44343L0.965637 13.9592L8.71935 22.4297C8.74412 22.4548 8.74412 22.4548 8.7689 22.4548H14.0454C14.194 22.4548 14.2683 22.2794 14.1692 22.1791L7.33211 14.3101L13.872 7.64392C13.9711 7.54367 13.8968 7.39331 13.7729 7.39331H8.34777C8.29822 7.39331 8.27345 7.41837 8.24868 7.44343Z" fill="#242931"/>
<path d="M49.6903 14.586H45.3304V27.9183C45.3304 27.9684 45.3799 28.0185 45.4294 27.9935L49.5664 26.6903C49.5912 26.6903 49.616 26.6402 49.616 26.6151L49.6903 14.586Z" fill="#242931"/>
<path d="M52.6646 22.278C48.6267 22.278 45.332 18.9449 45.332 14.86C45.332 10.7751 48.6267 7.44208 52.6646 7.44208C56.7025 7.44208 59.9972 10.7751 59.9972 14.86C59.9972 18.9449 56.7025 22.278 52.6646 22.278ZM52.6646 11.8528C51.0297 11.8528 49.6919 13.206 49.6919 14.86C49.6919 16.514 51.0297 17.8673 52.6646 17.8673C54.2996 17.8673 55.6373 16.514 55.6373 14.86C55.6373 13.206 54.3244 11.8528 52.6646 11.8528Z" fill="#242931"/>
<path d="M43.8694 17.6933C43.7951 14.9616 41.1197 13.9091 39.1379 13.1573C38.147 12.7814 37.1066 12.3804 37.057 11.9544C37.0323 11.8541 37.0323 11.5534 37.2552 11.2777C37.5029 11.002 37.9241 10.8767 38.5186 10.9018C39.6333 10.9519 40.104 11.7288 40.2774 12.1799L40.3022 12.23L40.3517 12.2801C40.5004 12.4305 40.7481 12.4806 40.9215 12.3553L43.5226 10.8016C43.7455 10.6763 43.8199 10.4006 43.696 10.175C42.7051 8.39574 40.7481 7.39331 38.2957 7.39331C36.8589 7.39331 35.5212 7.8444 34.5055 8.64635C33.4155 9.49841 32.821 10.7013 32.821 12.0295C32.821 13.859 33.8119 15.2122 35.7689 16.0894C36.1157 16.2397 36.6111 16.365 37.1561 16.4903C38.2461 16.766 39.7572 17.1419 39.6086 17.7935C39.5343 18.1694 39.0884 18.7709 38.1718 18.7207C37.3791 18.6706 36.7102 18.2446 36.4377 17.568V17.5429L36.413 17.4928C36.2891 17.2923 36.0166 17.2171 35.7937 17.3424L33.1926 18.9212C32.9696 19.0465 32.8953 19.3222 33.0192 19.5477C34.0101 21.302 35.9671 22.3295 38.3947 22.3295H38.4195C40.104 22.3295 41.7142 21.6779 42.7299 20.6254C43.4978 19.8234 43.8942 18.7959 43.8694 17.6933Z" fill="#242931"/>
<path d="M22.2929 7.41815C18.3541 7.44321 15.1585 10.676 15.1585 14.6607V22.2791C15.1585 22.3042 15.1833 22.3543 15.2328 22.3543H19.568C19.5927 22.3543 19.6423 22.3293 19.6423 22.2791V15.3874C19.6423 13.4828 21.1782 11.9291 23.0609 11.9291H23.8536C23.9031 11.9291 23.9527 11.879 23.9527 11.8539L24.3986 7.6437C24.4233 7.51839 24.3242 7.41815 24.2004 7.41815H22.2929Z" fill="#242931"/>
</svg>
