<svg width="115" height="97" viewBox="0 0 115 97" fill="none" xmlns="http://www.w3.org/2000/svg">
<path d="M29.1702 44.9361C29.1702 53.133 35.8017 59.7645 43.9986 59.7645C52.1954 59.7645 58.8269 53.133 58.8269 44.9361C58.8269 36.7393 52.1954 30.1078 43.9986 30.1078C35.8017 30.1078 29.1702 36.7287 29.1702 44.9361ZM85.0357 29.1136L60.2548 30.3933C66.9815 38.2517 67.0872 49.5898 61.4288 58.2838L41.5448 88.8712C49.7945 89.3154 58.2981 87.5068 65.9978 83.033C85.0357 72.0333 92.7566 48.9658 85.0357 29.1136ZM23.7233 53.3868L7.17095 20.8321C2.48281 27.9963 -0.0096422 36.3743 2.80324e-05 44.9361C2.80324e-05 66.9354 16.1082 85.1588 37.1661 88.3847L48.4725 66.2374C38.2555 68.1623 28.3876 62.5567 23.7233 53.3868ZM46.8331 23.1907L83.2588 25.1051C79.5359 17.7226 73.6764 11.3026 65.9767 6.82874C59.0067 2.79907 51.3493 0.884706 43.8399 0.937589C30.8836 0.990472 18.2235 6.77586 9.77278 17.2784L23.3319 38.1037C26.7165 28.3838 36.5315 22.5878 46.8331 23.1907Z" fill="#D7D7E6"/>
<path d="M106.226 77.4396C107.468 76.658 108.633 75.7981 109.72 74.7038C112.981 71.4207 114.767 67.1997 114.767 62.5096C114.767 57.8195 112.981 53.4421 109.72 50.1591C106.459 46.876 102.111 45.0782 97.4515 45.0782C92.7925 45.0782 88.4441 46.876 85.1828 50.1591C84.0181 51.3316 83.0863 52.5823 82.3098 53.9893H73.4577C70.507 48.5957 64.8385 45 58.3159 45C48.765 45 41 52.8168 41 62.4314C41 68.763 44.4166 74.3911 49.5415 77.4396V88.9487C49.5415 93.4043 53.1134 97 57.5394 97H98.228C102.654 97 106.226 93.4043 106.226 88.9487V77.4396Z" fill="white"/>
<path d="M75.3213 84.1621H80.3685C81.3003 84.1621 82.1545 83.4586 82.2321 82.5206L83.0863 75.72H72.6035L73.4577 82.5206C73.613 83.4586 74.3895 84.1621 75.3213 84.1621ZM96.908 89.8086C96.908 90.5902 97.5292 91.1374 98.228 91.1374C99.0045 91.1374 99.5481 90.5121 99.5481 89.8086C99.5481 89.0269 98.9269 88.4797 98.228 88.4797C97.5292 88.4015 96.908 89.0269 96.908 89.8086ZM98.3057 86.291C100.247 86.291 101.8 87.8544 101.8 89.8086C101.8 91.7628 100.247 93.3261 98.3057 93.3261C96.3644 93.3261 94.8114 91.7628 94.8114 89.8086C94.8114 87.8544 96.3644 86.291 98.3057 86.291ZM98.3057 87.7762C97.2186 87.7762 96.2868 88.7142 96.2868 89.8086C96.2868 90.9029 97.2186 91.8409 98.3057 91.8409C99.3928 91.8409 100.325 90.9029 100.325 89.8086C100.247 88.7142 99.3928 87.7762 98.3057 87.7762ZM57.4618 88.4015C56.6853 88.4015 56.1417 89.0269 56.1417 89.7304C56.1417 90.5121 56.7629 91.0592 57.4618 91.0592C58.1606 91.0592 58.7818 90.4339 58.7818 89.7304C58.8595 89.0269 58.2383 88.4015 57.4618 88.4015ZM60.956 89.8086C60.956 91.7628 59.403 93.3261 57.4618 93.3261C55.5205 93.3261 53.9675 91.7628 53.9675 89.8086C53.9675 87.8544 55.5205 86.291 57.4618 86.291C59.403 86.291 60.956 87.8544 60.956 89.8086ZM59.4807 89.8086C59.4807 88.7142 58.5489 87.7762 57.4618 87.7762C56.3747 87.7762 55.4429 88.7142 55.4429 89.8086C55.4429 90.9029 56.3747 91.8409 57.4618 91.8409C58.5489 91.8409 59.4807 90.9029 59.4807 89.8086ZM58.3159 55.5527C58.7818 55.5527 59.2477 55.6308 59.7136 55.709L61.2666 48.283C60.2572 48.0485 59.3254 47.9704 58.3159 47.9704C57.3065 47.9704 56.297 48.0485 55.3652 48.283L56.9182 55.709C57.3841 55.5527 57.85 55.5527 58.3159 55.5527ZM53.2687 66.9652C52.6475 66.2617 52.1816 65.4018 51.871 64.542L44.7272 66.887C45.0378 67.825 45.426 68.763 45.9696 69.6229C46.4355 70.4827 47.0567 71.3426 47.7555 72.0461L53.2687 66.9652ZM53.0357 62.3533C53.0357 59.3829 55.4429 57.0378 58.3159 57.0378C61.189 57.0378 63.5961 59.461 63.5961 62.3533C63.5961 65.2455 61.189 67.6687 58.3159 67.6687C55.4429 67.6687 53.0357 65.3236 53.0357 62.3533ZM54.5111 62.3533C54.5111 64.4638 56.2194 66.1835 58.3159 66.1835C60.4125 66.1835 62.1208 64.4638 62.1208 62.3533C62.1208 60.2427 60.4125 58.523 58.3159 58.523C56.2194 58.523 54.5111 60.2427 54.5111 62.3533ZM68.954 72.0461C69.6528 71.2644 70.1964 70.4827 70.7399 69.6229C71.2058 68.763 71.6717 67.825 71.9823 66.887L64.8385 64.542C64.5279 65.48 64.062 66.2617 63.4408 66.9652L68.954 72.0461ZM109.72 74.7038C108.633 75.7981 107.468 76.658 106.226 77.4396V88.9487C106.226 93.4043 102.654 97 98.228 97H57.5394C53.1134 97 49.5415 93.4043 49.5415 88.9487V77.4396C44.4166 74.3911 41 68.763 41 62.4314C41 52.8168 48.765 45 58.3159 45C64.8385 45 70.507 48.5957 73.4577 53.9893H82.3098C83.0863 52.5823 84.0181 51.3316 85.1828 50.1591C88.4441 46.876 92.7925 45.0782 97.4515 45.0782C102.111 45.0782 106.459 46.876 109.72 50.1591C112.981 53.4421 114.767 57.8195 114.767 62.5096C114.767 67.1997 112.981 71.4207 109.72 74.7038ZM50.7839 76.4235C51.1721 76.658 51.638 76.8143 52.0263 77.0488C52.1039 77.0488 52.1816 77.127 52.2592 77.127C52.6475 77.2833 53.1134 77.4396 53.5016 77.596C53.5793 77.596 53.7346 77.6742 53.8122 77.6742C54.2005 77.7523 54.5111 77.9087 54.8993 77.9868C54.977 77.9868 55.1323 78.065 55.2099 78.065C55.6758 78.1432 56.0641 78.2213 56.53 78.2995C56.6076 78.2995 56.7629 78.2995 56.8406 78.2995C57.3065 78.3777 57.7724 78.3777 58.2383 78.3777C67.0127 78.3777 74.0789 71.1862 74.0789 62.4314C74.0789 61.9624 74.0789 61.4152 74.0012 60.9462C74.0012 60.8681 74.0012 60.7899 74.0012 60.7117C73.9236 60.2427 73.8459 59.7737 73.7683 59.2265C73.7683 59.1484 73.7683 59.1484 73.7683 59.0702C73.5353 58.1322 73.3024 57.1942 72.9141 56.2562C72.9141 56.178 72.8365 56.0998 72.8365 56.0998C70.4293 50.3936 64.7609 46.407 58.2383 46.407C49.4638 46.407 42.3977 53.5985 42.3977 62.3533C42.4753 68.4503 45.8143 73.6876 50.7839 76.4235ZM104.751 78.2213C102.499 79.2375 100.014 79.8629 97.4515 79.8629C93.3361 79.8629 89.3759 78.3777 86.2699 75.72C86.1923 75.72 86.1923 75.6418 86.1146 75.6418C85.804 75.3291 85.4934 75.0946 85.1828 74.7819C84.7946 74.3911 84.4063 74.0003 84.0957 73.6094C84.0181 73.5313 83.9404 73.3749 83.8628 73.2968C83.6298 72.9841 83.3192 72.5932 83.0863 72.2806C83.0086 72.2024 83.0086 72.1242 82.931 72.0461C79.825 67.356 79.2814 61.4152 81.378 56.0998C81.378 56.0217 81.4556 55.9435 81.4556 55.8653C81.5333 55.709 81.5333 55.6308 81.6109 55.4745H74.2342C74.2342 55.4745 74.2342 55.5527 74.3118 55.5527C74.3895 55.709 74.4671 55.8653 74.5448 56.0217C74.5448 56.0998 74.6224 56.178 74.6224 56.3343C74.7001 56.5688 74.7777 56.8033 74.8554 57.0378V57.116C75.3989 58.7575 75.7095 60.5554 75.7095 62.4314C75.7095 72.0461 67.9445 79.8629 58.3936 79.8629C58.083 79.8629 57.7724 79.8629 57.4618 79.8629C57.3841 79.8629 57.3841 79.8629 57.3065 79.8629C57.0735 79.8629 56.7629 79.8629 56.53 79.7847C56.4523 79.7847 56.4523 79.7847 56.3747 79.7847C56.1417 79.7847 55.8311 79.7065 55.5982 79.7065C55.5205 79.7065 55.5205 79.7065 55.4429 79.7065C55.2099 79.6283 54.977 79.6283 54.6664 79.5502C54.5887 79.5502 54.5111 79.5502 54.5111 79.472C54.2781 79.3938 54.0452 79.3938 53.8122 79.3157C53.7346 79.3157 53.6569 79.2375 53.5793 79.2375C53.3463 79.1593 53.191 79.0812 52.9581 79.0812C52.8804 79.0812 52.7251 79.003 52.6475 79.003C52.4922 78.9248 52.3369 78.8467 52.1039 78.8467C51.9486 78.7685 51.871 78.7685 51.7157 78.6903C51.5604 78.6122 51.4827 78.6122 51.3274 78.534C51.2498 78.4558 51.0945 78.4558 51.0168 78.3777V89.1051C51.0168 92.7008 53.9675 95.6711 57.5394 95.6711H98.1504C101.722 95.6711 104.673 92.7008 104.673 89.1051V78.2213H104.751ZM108.633 73.6876C111.661 70.639 113.292 66.6525 113.292 62.4314C113.292 58.2104 111.661 54.1456 108.633 51.1753C105.605 48.1267 101.645 46.4852 97.4515 46.4852C93.1808 46.4852 89.2206 48.1267 86.2699 51.1753C84.7169 52.7386 83.5522 54.5365 82.7757 56.4125V56.4907C80.9897 60.7117 81.2227 65.6363 83.3969 69.7792C83.6298 70.17 83.8628 70.5609 84.0957 70.9517C84.1734 71.0299 84.251 71.1081 84.251 71.2644C84.484 71.5771 84.7169 71.8897 84.9499 72.2024C85.0275 72.2806 85.1052 72.4369 85.1828 72.5151C85.4934 72.9059 85.804 73.2968 86.1923 73.6094C86.5029 73.9221 86.8911 74.2348 87.2794 74.5474C87.4347 74.7038 87.59 74.8601 87.8229 74.9383C87.9782 75.0946 88.2112 75.251 88.3665 75.3291C88.5994 75.4855 88.8324 75.6418 89.143 75.7981C89.2206 75.8763 89.3759 75.9545 89.4536 75.9545C93.4914 78.2995 98.3833 78.7685 102.732 77.2051C103.508 76.8925 104.362 76.5798 105.139 76.1108L105.294 76.0326C106.459 75.5636 107.624 74.7038 108.633 73.6876ZM92.6372 57.5069C92.9478 57.1942 93.3361 56.8815 93.7243 56.5688L89.6089 50.2372C88.7547 50.7844 87.9782 51.4098 87.2794 52.1133C86.5805 52.8168 85.9593 53.5985 85.4158 54.4583L91.7054 58.6012C92.016 58.2885 92.249 57.8977 92.6372 57.5069ZM90.9289 75.2509C91.7831 75.72 92.7925 76.0326 93.7243 76.3453C94.6561 76.5798 95.6656 76.7361 96.675 76.8143L97.0633 69.232C96.1315 69.1539 95.1997 68.9194 94.3455 68.5285L90.9289 75.2509ZM101.179 58.6012C103.275 60.7117 103.275 64.0729 101.179 66.1053C100.169 67.1215 98.8492 67.6687 97.4515 67.6687C96.0538 67.6687 94.7338 67.1215 93.7243 66.1053C91.6278 63.9948 91.6278 60.6336 93.7243 58.6012C95.7432 56.5688 99.0822 56.5688 101.179 58.6012ZM100.169 59.6956C99.3928 58.9139 98.461 58.6012 97.4515 58.6012C96.4421 58.6012 95.5103 58.992 94.7338 59.6956C93.2584 61.1807 93.2584 63.6039 94.7338 65.1673C95.4326 65.8708 96.4421 66.2616 97.4515 66.2616C98.461 66.2616 99.4704 65.8708 100.169 65.1673C101.645 63.6039 101.645 61.1807 100.169 59.6956ZM111.273 58.6794C111.04 57.7414 110.652 56.8033 110.186 55.8653L103.508 59.3047C103.974 60.1646 104.207 61.1026 104.207 62.0406L111.739 61.6497C111.661 60.6336 111.506 59.6174 111.273 58.6794Z" fill="#B2B5C4"/>
</svg>
